<mxfile host="65bd71144e">
    <diagram id="2m4MUoa1miBkYlSpXScD" name="Page-1">
        <mxGraphModel dx="519" dy="698" grid="1" gridSize="10" guides="1" tooltips="1" connect="1" arrows="1" fold="1" page="1" pageScale="1" pageWidth="850" pageHeight="1100" math="0" shadow="0">
            <root>
                <mxCell id="0"/>
                <mxCell id="1" parent="0"/>
                <mxCell id="188" value="Kepler Daemon Pod&lt;br&gt;&lt;br&gt;&lt;br&gt;&lt;br&gt;&lt;br&gt;&lt;br&gt;&lt;br&gt;&lt;br&gt;" style="rounded=1;whiteSpace=wrap;html=1;" parent="1" vertex="1">
                    <mxGeometry x="390" y="730" width="290" height="120" as="geometry"/>
                </mxCell>
                <mxCell id="7" value="Kepler Model Server&lt;br&gt;&lt;br&gt;&lt;br&gt;&lt;br&gt;&lt;br&gt;&lt;br&gt;&lt;br&gt;" style="rounded=1;whiteSpace=wrap;html=1;" parent="1" vertex="1">
                    <mxGeometry x="430" y="100" width="250" height="120" as="geometry"/>
                </mxCell>
                <mxCell id="2" value="Kepler Daemon Pod&lt;br&gt;&lt;br&gt;&lt;br&gt;&lt;br&gt;&lt;br&gt;&lt;br&gt;" style="rounded=1;whiteSpace=wrap;html=1;" parent="1" vertex="1">
                    <mxGeometry x="110" y="100" width="270" height="120" as="geometry"/>
                </mxCell>
                <mxCell id="15" style="edgeStyle=none;html=1;exitX=0.5;exitY=1;exitDx=0;exitDy=0;startArrow=none;startFill=0;endArrow=classic;endFill=1;entryX=0.5;entryY=1;entryDx=0;entryDy=0;entryPerimeter=0;" parent="1" source="3" target="161" edge="1">
                    <mxGeometry relative="1" as="geometry"/>
                </mxCell>
                <mxCell id="48" value="export" style="edgeLabel;html=1;align=center;verticalAlign=middle;resizable=0;points=[];" parent="15" vertex="1" connectable="0">
                    <mxGeometry x="0.6092" y="-3" relative="1" as="geometry">
                        <mxPoint as="offset"/>
                    </mxGeometry>
                </mxCell>
                <mxCell id="39" style="edgeStyle=none;html=1;exitX=1;exitY=0.25;exitDx=0;exitDy=0;entryX=0;entryY=0.25;entryDx=0;entryDy=0;startArrow=none;startFill=0;endArrow=classic;endFill=1;" parent="1" source="3" target="4" edge="1">
                    <mxGeometry relative="1" as="geometry"/>
                </mxCell>
                <mxCell id="41" value="usages" style="edgeLabel;html=1;align=center;verticalAlign=middle;resizable=0;points=[];" parent="39" vertex="1" connectable="0">
                    <mxGeometry x="0.1307" y="2" relative="1" as="geometry">
                        <mxPoint x="-5" y="2" as="offset"/>
                    </mxGeometry>
                </mxCell>
                <mxCell id="3" value="Kepler" style="rounded=0;whiteSpace=wrap;html=1;" parent="1" vertex="1">
                    <mxGeometry x="117.5" y="130" width="95" height="80" as="geometry"/>
                </mxCell>
                <mxCell id="40" style="edgeStyle=none;html=1;exitX=-0.01;exitY=0.605;exitDx=0;exitDy=0;entryX=1.016;entryY=0.605;entryDx=0;entryDy=0;startArrow=none;startFill=0;endArrow=classic;endFill=1;exitPerimeter=0;entryPerimeter=0;" parent="1" source="4" target="3" edge="1">
                    <mxGeometry relative="1" as="geometry"/>
                </mxCell>
                <mxCell id="42" value="power" style="edgeLabel;html=1;align=center;verticalAlign=middle;resizable=0;points=[];" parent="40" vertex="1" connectable="0">
                    <mxGeometry x="-0.2002" y="1" relative="1" as="geometry">
                        <mxPoint x="-7" y="-1" as="offset"/>
                    </mxGeometry>
                </mxCell>
                <mxCell id="43" value="subscribe" style="edgeStyle=none;html=1;exitX=1;exitY=0.25;exitDx=0;exitDy=0;entryX=0;entryY=0.25;entryDx=0;entryDy=0;startArrow=none;startFill=0;endArrow=classic;endFill=1;" parent="1" source="4" target="10" edge="1">
                    <mxGeometry relative="1" as="geometry"/>
                </mxCell>
                <mxCell id="4" value="Kepler General Estimator" style="rounded=0;whiteSpace=wrap;html=1;" parent="1" vertex="1">
                    <mxGeometry x="270" y="130" width="100" height="80" as="geometry"/>
                </mxCell>
                <mxCell id="17" style="edgeStyle=none;html=1;exitX=0;exitY=0.5;exitDx=0;exitDy=0;exitPerimeter=0;entryX=0.5;entryY=1;entryDx=0;entryDy=0;startArrow=none;startFill=0;endArrow=classic;endFill=1;dashed=1;" parent="1" source="9" target="4" edge="1">
                    <mxGeometry relative="1" as="geometry">
                        <Array as="points">
                            <mxPoint x="320" y="270"/>
                        </Array>
                    </mxGeometry>
                </mxCell>
                <mxCell id="49" value="load initial models" style="edgeLabel;html=1;align=center;verticalAlign=middle;resizable=0;points=[];" parent="17" vertex="1" connectable="0">
                    <mxGeometry x="-0.0872" y="-3" relative="1" as="geometry">
                        <mxPoint as="offset"/>
                    </mxGeometry>
                </mxCell>
                <mxCell id="9" value="offline models" style="shape=cylinder3;whiteSpace=wrap;html=1;boundedLbl=1;backgroundOutline=1;size=7.20001220703125;" parent="1" vertex="1">
                    <mxGeometry x="445" y="240" width="60" height="60" as="geometry"/>
                </mxCell>
                <mxCell id="12" value="load initial models" style="edgeStyle=none;html=1;exitX=0.5;exitY=1;exitDx=0;exitDy=0;startArrow=classic;startFill=1;endArrow=none;endFill=0;" parent="1" source="10" target="9" edge="1">
                    <mxGeometry relative="1" as="geometry"/>
                </mxCell>
                <mxCell id="44" value="updated&lt;br&gt;model" style="edgeStyle=none;html=1;exitX=0;exitY=0.668;exitDx=0;exitDy=0;entryX=0.99;entryY=0.668;entryDx=0;entryDy=0;startArrow=none;startFill=0;endArrow=classic;endFill=1;entryPerimeter=0;exitPerimeter=0;" parent="1" source="10" target="4" edge="1">
                    <mxGeometry relative="1" as="geometry"/>
                </mxCell>
                <mxCell id="10" value="Server" style="rounded=0;whiteSpace=wrap;html=1;" parent="1" vertex="1">
                    <mxGeometry x="440" y="130" width="70" height="80" as="geometry"/>
                </mxCell>
                <mxCell id="75" style="edgeStyle=none;html=1;exitX=0;exitY=0.5;exitDx=0;exitDy=0;entryX=1;entryY=0.5;entryDx=0;entryDy=0;entryPerimeter=0;startArrow=none;startFill=0;endArrow=classic;endFill=1;" parent="1" source="11" target="74" edge="1">
                    <mxGeometry relative="1" as="geometry"/>
                </mxCell>
                <mxCell id="11" value="Online Trainer" style="rounded=0;whiteSpace=wrap;html=1;" parent="1" vertex="1">
                    <mxGeometry x="590" y="130" width="80" height="80" as="geometry"/>
                </mxCell>
                <mxCell id="16" style="edgeStyle=none;html=1;exitX=0;exitY=0.5;exitDx=0;exitDy=0;exitPerimeter=0;entryX=0.75;entryY=0;entryDx=0;entryDy=0;startArrow=none;startFill=0;endArrow=classic;endFill=1;" parent="1" source="165" target="11" edge="1">
                    <mxGeometry relative="1" as="geometry">
                        <mxPoint x="212.5" y="55" as="sourcePoint"/>
                        <Array as="points">
                            <mxPoint x="650" y="55"/>
                        </Array>
                    </mxGeometry>
                </mxCell>
                <mxCell id="47" value="query" style="edgeLabel;html=1;align=center;verticalAlign=middle;resizable=0;points=[];" parent="16" vertex="1" connectable="0">
                    <mxGeometry x="-0.2808" y="4" relative="1" as="geometry">
                        <mxPoint as="offset"/>
                    </mxGeometry>
                </mxCell>
                <mxCell id="76" style="edgeStyle=none;html=1;exitX=0;exitY=0.5;exitDx=0;exitDy=0;exitPerimeter=0;startArrow=none;startFill=0;endArrow=classic;endFill=1;" parent="1" source="74" target="10" edge="1">
                    <mxGeometry relative="1" as="geometry"/>
                </mxCell>
                <mxCell id="103" style="edgeStyle=none;html=1;exitX=0.5;exitY=1;exitDx=0;exitDy=0;exitPerimeter=0;entryX=0.5;entryY=0;entryDx=0;entryDy=0;startArrow=none;startFill=0;endArrow=none;endFill=0;" parent="1" source="74" target="102" edge="1">
                    <mxGeometry relative="1" as="geometry"/>
                </mxCell>
                <mxCell id="74" value="online models" style="shape=cylinder3;whiteSpace=wrap;html=1;boundedLbl=1;backgroundOutline=1;size=5.20001220703125;" parent="1" vertex="1">
                    <mxGeometry x="526" y="150" width="45" height="40" as="geometry"/>
                </mxCell>
                <mxCell id="104" style="edgeStyle=none;html=1;exitX=0.5;exitY=1;exitDx=0;exitDy=0;entryX=1;entryY=0.5;entryDx=0;entryDy=0;entryPerimeter=0;startArrow=none;startFill=0;endArrow=classic;endFill=1;" parent="1" source="102" target="9" edge="1">
                    <mxGeometry relative="1" as="geometry">
                        <Array as="points">
                            <mxPoint x="549" y="270"/>
                        </Array>
                    </mxGeometry>
                </mxCell>
                <mxCell id="102" value="archive" style="rounded=0;whiteSpace=wrap;html=1;" parent="1" vertex="1">
                    <mxGeometry x="521.5" y="230" width="54" height="20" as="geometry"/>
                </mxCell>
                <mxCell id="105" value="Kepler Model Server&lt;br&gt;&lt;br&gt;&lt;br&gt;&lt;br&gt;&lt;br&gt;&lt;br&gt;&lt;br&gt;" style="rounded=1;whiteSpace=wrap;html=1;" parent="1" vertex="1">
                    <mxGeometry x="372.5" y="410" width="250" height="120" as="geometry"/>
                </mxCell>
                <mxCell id="106" value="Kepler Daemon Pod&lt;br&gt;&lt;br&gt;&lt;br&gt;&lt;br&gt;&lt;br&gt;&lt;br&gt;" style="rounded=1;whiteSpace=wrap;html=1;" parent="1" vertex="1">
                    <mxGeometry x="190" y="410" width="130" height="120" as="geometry"/>
                </mxCell>
                <mxCell id="107" style="edgeStyle=none;html=1;exitX=0;exitY=0.5;exitDx=0;exitDy=0;startArrow=none;startFill=0;endArrow=classic;endFill=1;entryX=0.226;entryY=0.984;entryDx=0;entryDy=0;entryPerimeter=0;" parent="1" source="111" target="126" edge="1">
                    <mxGeometry relative="1" as="geometry">
                        <Array as="points">
                            <mxPoint x="176.5" y="480"/>
                        </Array>
                    </mxGeometry>
                </mxCell>
                <mxCell id="108" value="export" style="edgeLabel;html=1;align=center;verticalAlign=middle;resizable=0;points=[];" parent="107" vertex="1" connectable="0">
                    <mxGeometry x="0.6092" y="-3" relative="1" as="geometry">
                        <mxPoint as="offset"/>
                    </mxGeometry>
                </mxCell>
                <mxCell id="111" value="Kepler&lt;font style=&quot;font-size: 10px&quot;&gt;&lt;br&gt;&lt;font style=&quot;font-size: 10px&quot;&gt;(local linear regression estimator)&lt;/font&gt;&lt;/font&gt;" style="rounded=0;whiteSpace=wrap;html=1;" parent="1" vertex="1">
                    <mxGeometry x="200" y="440" width="107.5" height="80" as="geometry"/>
                </mxCell>
                <mxCell id="114" value="subscribe" style="edgeStyle=none;html=1;exitX=1;exitY=0.25;exitDx=0;exitDy=0;entryX=0;entryY=0.25;entryDx=0;entryDy=0;startArrow=none;startFill=0;endArrow=classic;endFill=1;" parent="1" source="111" target="121" edge="1">
                    <mxGeometry relative="1" as="geometry">
                        <mxPoint x="312.5" y="460" as="sourcePoint"/>
                    </mxGeometry>
                </mxCell>
                <mxCell id="116" style="edgeStyle=none;html=1;exitX=0;exitY=0.5;exitDx=0;exitDy=0;exitPerimeter=0;entryX=0.5;entryY=1;entryDx=0;entryDy=0;startArrow=none;startFill=0;endArrow=classic;endFill=1;dashed=1;" parent="1" source="118" target="111" edge="1">
                    <mxGeometry relative="1" as="geometry">
                        <Array as="points">
                            <mxPoint x="254" y="580"/>
                        </Array>
                    </mxGeometry>
                </mxCell>
                <mxCell id="117" value="load initial model weights" style="edgeLabel;html=1;align=center;verticalAlign=middle;resizable=0;points=[];" parent="116" vertex="1" connectable="0">
                    <mxGeometry x="-0.0872" y="-3" relative="1" as="geometry">
                        <mxPoint x="-21" y="3" as="offset"/>
                    </mxGeometry>
                </mxCell>
                <mxCell id="118" value="offline models" style="shape=cylinder3;whiteSpace=wrap;html=1;boundedLbl=1;backgroundOutline=1;size=7.20001220703125;" parent="1" vertex="1">
                    <mxGeometry x="387.5" y="550" width="60" height="60" as="geometry"/>
                </mxCell>
                <mxCell id="119" value="load initial models" style="edgeStyle=none;html=1;exitX=0.5;exitY=1;exitDx=0;exitDy=0;startArrow=classic;startFill=1;endArrow=none;endFill=0;" parent="1" source="121" target="118" edge="1">
                    <mxGeometry relative="1" as="geometry"/>
                </mxCell>
                <mxCell id="120" value="updated&lt;br&gt;weights" style="edgeStyle=none;html=1;exitX=0;exitY=0.75;exitDx=0;exitDy=0;startArrow=none;startFill=0;endArrow=classic;endFill=1;entryX=1;entryY=0.75;entryDx=0;entryDy=0;" parent="1" source="121" target="111" edge="1">
                    <mxGeometry relative="1" as="geometry">
                        <mxPoint x="312.5" y="500" as="targetPoint"/>
                    </mxGeometry>
                </mxCell>
                <mxCell id="121" value="Server" style="rounded=0;whiteSpace=wrap;html=1;" parent="1" vertex="1">
                    <mxGeometry x="382.5" y="440" width="70" height="80" as="geometry"/>
                </mxCell>
                <mxCell id="122" style="edgeStyle=none;html=1;exitX=0;exitY=0.5;exitDx=0;exitDy=0;entryX=1;entryY=0.5;entryDx=0;entryDy=0;entryPerimeter=0;startArrow=none;startFill=0;endArrow=classic;endFill=1;" parent="1" source="123" target="129" edge="1">
                    <mxGeometry relative="1" as="geometry"/>
                </mxCell>
                <mxCell id="123" value="Online Trainer" style="rounded=0;whiteSpace=wrap;html=1;" parent="1" vertex="1">
                    <mxGeometry x="532.5" y="440" width="80" height="80" as="geometry"/>
                </mxCell>
                <mxCell id="124" style="edgeStyle=none;html=1;exitX=0;exitY=0.5;exitDx=0;exitDy=0;exitPerimeter=0;entryX=0.75;entryY=0;entryDx=0;entryDy=0;startArrow=none;startFill=0;endArrow=classic;endFill=1;" parent="1" source="159" target="123" edge="1">
                    <mxGeometry relative="1" as="geometry">
                        <Array as="points">
                            <mxPoint x="593" y="365"/>
                        </Array>
                    </mxGeometry>
                </mxCell>
                <mxCell id="125" value="query" style="edgeLabel;html=1;align=center;verticalAlign=middle;resizable=0;points=[];" parent="124" vertex="1" connectable="0">
                    <mxGeometry x="-0.2808" y="4" relative="1" as="geometry">
                        <mxPoint x="24" y="-4" as="offset"/>
                    </mxGeometry>
                </mxCell>
                <mxCell id="126" value="Usage/&lt;br&gt;Estimated Power&lt;br&gt;Metrics" style="shape=cylinder3;whiteSpace=wrap;html=1;boundedLbl=1;backgroundOutline=1;size=6.800048828125;" parent="1" vertex="1">
                    <mxGeometry x="155" y="320" width="95" height="70" as="geometry"/>
                </mxCell>
                <mxCell id="127" style="edgeStyle=none;html=1;exitX=0;exitY=0.5;exitDx=0;exitDy=0;exitPerimeter=0;startArrow=none;startFill=0;endArrow=classic;endFill=1;" parent="1" source="129" target="121" edge="1">
                    <mxGeometry relative="1" as="geometry"/>
                </mxCell>
                <mxCell id="128" style="edgeStyle=none;html=1;exitX=0.5;exitY=1;exitDx=0;exitDy=0;exitPerimeter=0;entryX=0.5;entryY=0;entryDx=0;entryDy=0;startArrow=none;startFill=0;endArrow=none;endFill=0;" parent="1" source="129" target="131" edge="1">
                    <mxGeometry relative="1" as="geometry"/>
                </mxCell>
                <mxCell id="129" value="online models" style="shape=cylinder3;whiteSpace=wrap;html=1;boundedLbl=1;backgroundOutline=1;size=5.20001220703125;" parent="1" vertex="1">
                    <mxGeometry x="468.5" y="460" width="45" height="40" as="geometry"/>
                </mxCell>
                <mxCell id="130" style="edgeStyle=none;html=1;exitX=0.5;exitY=1;exitDx=0;exitDy=0;entryX=1;entryY=0.5;entryDx=0;entryDy=0;entryPerimeter=0;startArrow=none;startFill=0;endArrow=classic;endFill=1;" parent="1" source="131" target="118" edge="1">
                    <mxGeometry relative="1" as="geometry">
                        <Array as="points">
                            <mxPoint x="491.5" y="580"/>
                        </Array>
                    </mxGeometry>
                </mxCell>
                <mxCell id="131" value="archive" style="rounded=0;whiteSpace=wrap;html=1;" parent="1" vertex="1">
                    <mxGeometry x="464" y="540" width="54" height="20" as="geometry"/>
                </mxCell>
                <mxCell id="134" value="Kepler Daemon Pod&lt;br&gt;&lt;br&gt;&lt;br&gt;&lt;br&gt;&lt;br&gt;&lt;br&gt;&lt;br&gt;&lt;br&gt;" style="rounded=1;whiteSpace=wrap;html=1;" parent="1" vertex="1">
                    <mxGeometry x="192.5" y="710" width="130" height="120" as="geometry"/>
                </mxCell>
                <mxCell id="135" style="edgeStyle=none;html=1;exitX=0;exitY=0.5;exitDx=0;exitDy=0;startArrow=none;startFill=0;endArrow=classic;endFill=1;entryX=0.226;entryY=0.984;entryDx=0;entryDy=0;entryPerimeter=0;" parent="1" source="137" target="149" edge="1">
                    <mxGeometry relative="1" as="geometry">
                        <Array as="points">
                            <mxPoint x="176.5" y="780"/>
                        </Array>
                    </mxGeometry>
                </mxCell>
                <mxCell id="136" value="export" style="edgeLabel;html=1;align=center;verticalAlign=middle;resizable=0;points=[];" parent="135" vertex="1" connectable="0">
                    <mxGeometry x="0.6092" y="-3" relative="1" as="geometry">
                        <mxPoint as="offset"/>
                    </mxGeometry>
                </mxCell>
                <mxCell id="137" value="Kepler&lt;font style=&quot;font-size: 10px&quot;&gt;&lt;br&gt;(local &lt;br&gt;linear regression estimator)&lt;/font&gt;" style="rounded=0;whiteSpace=wrap;html=1;" parent="1" vertex="1">
                    <mxGeometry x="212.5" y="740" width="95" height="80" as="geometry"/>
                </mxCell>
                <mxCell id="139" style="edgeStyle=none;html=1;exitX=0.5;exitY=0;exitDx=0;exitDy=0;exitPerimeter=0;entryX=0.5;entryY=1;entryDx=0;entryDy=0;startArrow=none;startFill=0;endArrow=classic;endFill=1;dashed=1;" parent="1" source="141" target="137" edge="1">
                    <mxGeometry relative="1" as="geometry">
                        <Array as="points">
                            <mxPoint x="260.5" y="880"/>
                        </Array>
                    </mxGeometry>
                </mxCell>
                <mxCell id="140" value="load initial model weights" style="edgeLabel;html=1;align=center;verticalAlign=middle;resizable=0;points=[];" parent="139" vertex="1" connectable="0">
                    <mxGeometry x="-0.0872" y="-3" relative="1" as="geometry">
                        <mxPoint x="4" y="-8" as="offset"/>
                    </mxGeometry>
                </mxCell>
                <mxCell id="141" value="offline models" style="shape=cylinder3;whiteSpace=wrap;html=1;boundedLbl=1;backgroundOutline=1;size=7.20001220703125;" parent="1" vertex="1">
                    <mxGeometry x="230" y="870" width="60" height="60" as="geometry"/>
                </mxCell>
                <mxCell id="149" value="Usage/Power&lt;br&gt;Metrics" style="shape=cylinder3;whiteSpace=wrap;html=1;boundedLbl=1;backgroundOutline=1;size=7.20001220703125;" parent="1" vertex="1">
                    <mxGeometry x="155" y="640" width="95" height="50" as="geometry"/>
                </mxCell>
                <mxCell id="160" style="edgeStyle=none;html=1;exitX=0.5;exitY=0;exitDx=0;exitDy=0;entryX=0.5;entryY=1;entryDx=0;entryDy=0;entryPerimeter=0;fontSize=10;startArrow=none;startFill=0;endArrow=none;endFill=0;" parent="1" source="157" target="159" edge="1">
                    <mxGeometry relative="1" as="geometry"/>
                </mxCell>
                <mxCell id="157" value="Kepler Daemon Pod&lt;br&gt;&lt;br&gt;&lt;br&gt;&lt;br&gt;&lt;br&gt;&lt;br&gt;" style="rounded=1;whiteSpace=wrap;html=1;" parent="1" vertex="1">
                    <mxGeometry x="657.5" y="410" width="130" height="120" as="geometry"/>
                </mxCell>
                <mxCell id="158" value="Kepler&lt;font style=&quot;font-size: 10px&quot;&gt;&lt;br&gt;&lt;font style=&quot;font-size: 10px&quot;&gt;with Power Measurement&lt;/font&gt;&lt;/font&gt;" style="rounded=0;whiteSpace=wrap;html=1;" parent="1" vertex="1">
                    <mxGeometry x="675" y="440" width="95" height="80" as="geometry"/>
                </mxCell>
                <mxCell id="159" value="Usage/Power&lt;br&gt;Metrics" style="shape=cylinder3;whiteSpace=wrap;html=1;boundedLbl=1;backgroundOutline=1;size=7.20001220703125;" parent="1" vertex="1">
                    <mxGeometry x="675" y="340" width="95" height="50" as="geometry"/>
                </mxCell>
                <mxCell id="161" value="Usage/&lt;br&gt;Estimated Power&lt;br&gt;Metrics" style="shape=cylinder3;whiteSpace=wrap;html=1;boundedLbl=1;backgroundOutline=1;size=6.800048828125;" parent="1" vertex="1">
                    <mxGeometry x="117.5" y="10" width="95" height="70" as="geometry"/>
                </mxCell>
                <mxCell id="162" style="edgeStyle=none;html=1;exitX=0.5;exitY=0;exitDx=0;exitDy=0;entryX=0.5;entryY=1;entryDx=0;entryDy=0;entryPerimeter=0;fontSize=10;startArrow=none;startFill=0;endArrow=none;endFill=0;" parent="1" source="163" target="165" edge="1">
                    <mxGeometry relative="1" as="geometry"/>
                </mxCell>
                <mxCell id="163" value="Kepler Daemon Pod&lt;br&gt;&lt;br&gt;&lt;br&gt;&lt;br&gt;&lt;br&gt;&lt;br&gt;" style="rounded=1;whiteSpace=wrap;html=1;" parent="1" vertex="1">
                    <mxGeometry x="710" y="100" width="130" height="120" as="geometry"/>
                </mxCell>
                <mxCell id="164" value="Kepler&lt;font style=&quot;font-size: 10px&quot;&gt;&lt;br&gt;&lt;font style=&quot;font-size: 10px&quot;&gt;with Power Measurement&lt;/font&gt;&lt;/font&gt;" style="rounded=0;whiteSpace=wrap;html=1;" parent="1" vertex="1">
                    <mxGeometry x="727.5" y="130" width="95" height="80" as="geometry"/>
                </mxCell>
                <mxCell id="165" value="Usage/Power&lt;br&gt;Metrics" style="shape=cylinder3;whiteSpace=wrap;html=1;boundedLbl=1;backgroundOutline=1;size=7.20001220703125;" parent="1" vertex="1">
                    <mxGeometry x="727.5" y="30" width="95" height="50" as="geometry"/>
                </mxCell>
                <mxCell id="174" style="edgeStyle=none;html=1;exitX=0.5;exitY=1;exitDx=0;exitDy=0;startArrow=none;startFill=0;endArrow=classic;endFill=1;entryX=0.5;entryY=1;entryDx=0;entryDy=0;entryPerimeter=0;" parent="1" source="178" target="184" edge="1">
                    <mxGeometry relative="1" as="geometry"/>
                </mxCell>
                <mxCell id="175" value="export" style="edgeLabel;html=1;align=center;verticalAlign=middle;resizable=0;points=[];" parent="174" vertex="1" connectable="0">
                    <mxGeometry x="0.6092" y="-3" relative="1" as="geometry">
                        <mxPoint as="offset"/>
                    </mxGeometry>
                </mxCell>
                <mxCell id="176" style="edgeStyle=none;html=1;exitX=1;exitY=0.25;exitDx=0;exitDy=0;entryX=0;entryY=0.25;entryDx=0;entryDy=0;startArrow=none;startFill=0;endArrow=classic;endFill=1;" parent="1" source="178" target="181" edge="1">
                    <mxGeometry relative="1" as="geometry"/>
                </mxCell>
                <mxCell id="177" value="usages" style="edgeLabel;html=1;align=center;verticalAlign=middle;resizable=0;points=[];" parent="176" vertex="1" connectable="0">
                    <mxGeometry x="0.1307" y="2" relative="1" as="geometry">
                        <mxPoint x="-5" y="2" as="offset"/>
                    </mxGeometry>
                </mxCell>
                <mxCell id="178" value="Kepler" style="rounded=0;whiteSpace=wrap;html=1;" parent="1" vertex="1">
                    <mxGeometry x="410" y="760" width="95" height="80" as="geometry"/>
                </mxCell>
                <mxCell id="179" style="edgeStyle=none;html=1;exitX=-0.01;exitY=0.605;exitDx=0;exitDy=0;entryX=1.016;entryY=0.605;entryDx=0;entryDy=0;startArrow=none;startFill=0;endArrow=classic;endFill=1;exitPerimeter=0;entryPerimeter=0;" parent="1" source="181" target="178" edge="1">
                    <mxGeometry relative="1" as="geometry"/>
                </mxCell>
                <mxCell id="180" value="power" style="edgeLabel;html=1;align=center;verticalAlign=middle;resizable=0;points=[];" parent="179" vertex="1" connectable="0">
                    <mxGeometry x="-0.2002" y="1" relative="1" as="geometry">
                        <mxPoint x="-7" y="-1" as="offset"/>
                    </mxGeometry>
                </mxCell>
                <mxCell id="181" value="Kepler General Estimator" style="rounded=0;whiteSpace=wrap;html=1;" parent="1" vertex="1">
                    <mxGeometry x="562.5" y="760" width="100" height="80" as="geometry"/>
                </mxCell>
                <mxCell id="185" style="edgeStyle=none;html=1;exitX=0.5;exitY=0;exitDx=0;exitDy=0;exitPerimeter=0;entryX=0.5;entryY=1;entryDx=0;entryDy=0;fontSize=10;startArrow=none;startFill=0;endArrow=classic;endFill=1;dashed=1;" parent="1" source="183" target="181" edge="1">
                    <mxGeometry relative="1" as="geometry"/>
                </mxCell>
                <mxCell id="186" value="&lt;span style=&quot;color: rgba(0 , 0 , 0 , 0) ; font-family: monospace ; font-size: 0px ; background-color: rgb(248 , 249 , 250)&quot;&gt;%3CmxGraphModel%3E%3Croot%3E%3CmxCell%20id%3D%220%22%2F%3E%3CmxCell%20id%3D%221%22%20parent%3D%220%22%2F%3E%3CmxCell%20id%3D%222%22%20value%3D%22load%20initial%20models%22%20style%3D%22edgeLabel%3Bhtml%3D1%3Balign%3Dcenter%3BverticalAlign%3Dmiddle%3Bresizable%3D0%3Bpoints%3D%5B%5D%3B%22%20vertex%3D%221%22%20connectable%3D%220%22%20parent%3D%221%22%3E%3CmxGeometry%20x%3D%22653.5%22%20y%3D%22897%22%20as%3D%22geometry%22%2F%3E%3C%2FmxCell%3E%3C%2Froot%3E%3C%2FmxGraphModel%3E&lt;/span&gt;&lt;span style=&quot;color: rgba(0 , 0 , 0 , 0) ; font-family: monospace ; font-size: 0px ; background-color: rgb(248 , 249 , 250)&quot;&gt;%3CmxGraphModel%3E%3Croot%3E%3CmxCell%20id%3D%220%22%2F%3E%3CmxCell%20id%3D%221%22%20parent%3D%220%22%2F%3E%3CmxCell%20id%3D%222%22%20value%3D%22load%20initial%20models%22%20style%3D%22edgeLabel%3Bhtml%3D1%3Balign%3Dcenter%3BverticalAlign%3Dmiddle%3Bresizable%3D0%3Bpoints%3D%5B%5D%3B%22%20vertex%3D%221%22%20connectable%3D%220%22%20parent%3D%221%22%3E%3CmxGeometry%20x%3D%22653.5%22%20y%3D%22897%22%20as%3D%22geometry%22%2F%3E%3C%2FmxCell%3E%3C%2Froot%3E%3C%2FmxGraphModel%3E&lt;/span&gt;" style="edgeLabel;html=1;align=center;verticalAlign=middle;resizable=0;points=[];fontSize=10;" parent="185" vertex="1" connectable="0">
                    <mxGeometry x="0.4586" y="1" relative="1" as="geometry">
                        <mxPoint as="offset"/>
                    </mxGeometry>
                </mxCell>
                <mxCell id="187" value="&lt;span style=&quot;font-size: 11px&quot;&gt;load initial models&lt;/span&gt;" style="edgeLabel;html=1;align=center;verticalAlign=middle;resizable=0;points=[];fontSize=10;" parent="185" vertex="1" connectable="0">
                    <mxGeometry x="0.2981" y="3" relative="1" as="geometry">
                        <mxPoint y="9" as="offset"/>
                    </mxGeometry>
                </mxCell>
                <mxCell id="183" value="offline models" style="shape=cylinder3;whiteSpace=wrap;html=1;boundedLbl=1;backgroundOutline=1;size=7.20001220703125;" parent="1" vertex="1">
                    <mxGeometry x="582.5" y="870" width="60" height="60" as="geometry"/>
                </mxCell>
                <mxCell id="184" value="Usage/&lt;br&gt;Estimated Power&lt;br&gt;Metrics" style="shape=cylinder3;whiteSpace=wrap;html=1;boundedLbl=1;backgroundOutline=1;size=6.800048828125;" parent="1" vertex="1">
                    <mxGeometry x="410" y="640" width="95" height="70" as="geometry"/>
                </mxCell>
            </root>
        </mxGraphModel>
    </diagram>
</mxfile>